<svg xmlns="http://www.w3.org/2000/svg" width="769" height="135" viewBox="0 0 769 135" role="img" aria-label="LLM usage heatmap, trailing 12 months">
<g font-family="-apple-system,BlinkMacSystemFont,'Segoe UI',Helvetica,Arial,sans-serif" font-size="10" fill="#8b949e">
<text x="58" y="10">Aug</text>
<text x="128" y="10">Sep</text>
<text x="184" y="10">Oct</text>
<text x="240" y="10">Nov</text>
<text x="310" y="10">Dec</text>
<text x="366" y="10">Jan</text>
<text x="422" y="10">Feb</text>
<text x="478" y="10">Mar</text>
<text x="548" y="10">Apr</text>
<text x="604" y="10">May</text>
<text x="674" y="10">Jun</text>
<text x="730" y="10">Jul</text>
<text x="24" y="39" text-anchor="end">Mon</text>
<text x="24" y="67" text-anchor="end">Wed</text>
<text x="24" y="95" text-anchor="end">Fri</text>
</g>
<rect x="30" y="16" width="11" height="11" rx="2" fill="#161b22"/>
<rect x="30" y="30" width="11" height="11" rx="2" fill="#161b22"/>
<rect x="30" y="44" width="11" height="11" rx="2" fill="#161b22"/>
<rect x="30" y="58" width="11" height="11" rx="2" fill="#161b22"/>
<rect x="30" y="72" width="11" height="11" rx="2" fill="#161b22"/>
<rect x="30" y="86" width="11" height="11" rx="2" fill="#161b22"/>
<rect x="30" y="100" width="11" height="11" rx="2" fill="#161b22"/>
<rect x="44" y="16" width="11" height="11" rx="2" fill="#161b22"/>
<rect x="44" y="30" width="11" height="11" rx="2" fill="#161b22"/>
<rect x="44" y="44" width="11" height="11" rx="2" fill="#161b22"/>
<rect x="44" y="58" width="11" height="11" rx="2" fill="#161b22"/>
<rect x="44" y="72" width="11" height="11" rx="2" fill="#161b22"/>
<rect x="44" y="86" width="11" height="11" rx="2" fill="#161b22"/>
<rect x="44" y="100" width="11" height="11" rx="2" fill="#161b22"/>
<rect x="58" y="16" width="11" height="11" rx="2" fill="#161b22"/>
<rect x="58" y="30" width="11" height="11" rx="2" fill="#161b22"/>
<rect x="58" y="44" width="11" height="11" rx="2" fill="#161b22"/>
<rect x="58" y="58" width="11" height="11" rx="2" fill="#161b22"/>
<rect x="58" y="72" width="11" height="11" rx="2" fill="#161b22"/>
<rect x="58" y="86" width="11" height="11" rx="2" fill="#161b22"/>
<rect x="58" y="100" width="11" height="11" rx="2" fill="#161b22"/>
<rect x="72" y="16" width="11" height="11" rx="2" fill="#161b22"/>
<rect x="72" y="30" width="11" height="11" rx="2" fill="#161b22"/>
<rect x="72" y="44" width="11" height="11" rx="2" fill="#161b22"/>
<rect x="72" y="58" width="11" height="11" rx="2" fill="#161b22"/>
<rect x="72" y="72" width="11" height="11" rx="2" fill="#161b22"/>
<rect x="72" y="86" width="11" height="11" rx="2" fill="#161b22"/>
<rect x="72" y="100" width="11" height="11" rx="2" fill="#161b22"/>
<rect x="86" y="16" width="11" height="11" rx="2" fill="#161b22"/>
<rect x="86" y="30" width="11" height="11" rx="2" fill="#161b22"/>
<rect x="86" y="44" width="11" height="11" rx="2" fill="#161b22"/>
<rect x="86" y="58" width="11" height="11" rx="2" fill="#161b22"/>
<rect x="86" y="72" width="11" height="11" rx="2" fill="#161b22"/>
<rect x="86" y="86" width="11" height="11" rx="2" fill="#161b22"/>
<rect x="86" y="100" width="11" height="11" rx="2" fill="#161b22"/>
<rect x="100" y="16" width="11" height="11" rx="2" fill="#161b22"/>
<rect x="100" y="30" width="11" height="11" rx="2" fill="#161b22"/>
<rect x="100" y="44" width="11" height="11" rx="2" fill="#161b22"/>
<rect x="100" y="58" width="11" height="11" rx="2" fill="#161b22"/>
<rect x="100" y="72" width="11" height="11" rx="2" fill="#161b22"/>
<rect x="100" y="86" width="11" height="11" rx="2" fill="#161b22"/>
<rect x="100" y="100" width="11" height="11" rx="2" fill="#161b22"/>
<rect x="114" y="16" width="11" height="11" rx="2" fill="#161b22"/>
<rect x="114" y="30" width="11" height="11" rx="2" fill="#161b22"/>
<rect x="114" y="44" width="11" height="11" rx="2" fill="#161b22"/>
<rect x="114" y="58" width="11" height="11" rx="2" fill="#161b22"/>
<rect x="114" y="72" width="11" height="11" rx="2" fill="#161b22"/>
<rect x="114" y="86" width="11" height="11" rx="2" fill="#161b22"/>
<rect x="114" y="100" width="11" height="11" rx="2" fill="#161b22"/>
<rect x="128" y="16" width="11" height="11" rx="2" fill="#161b22"/>
<rect x="128" y="30" width="11" height="11" rx="2" fill="#161b22"/>
<rect x="128" y="44" width="11" height="11" rx="2" fill="#161b22"/>
<rect x="128" y="58" width="11" height="11" rx="2" fill="#161b22"/>
<rect x="128" y="72" width="11" height="11" rx="2" fill="#161b22"/>
<rect x="128" y="86" width="11" height="11" rx="2" fill="#161b22"/>
<rect x="128" y="100" width="11" height="11" rx="2" fill="#161b22"/>
<rect x="142" y="16" width="11" height="11" rx="2" fill="#161b22"/>
<rect x="142" y="30" width="11" height="11" rx="2" fill="#161b22"/>
<rect x="142" y="44" width="11" height="11" rx="2" fill="#161b22"/>
<rect x="142" y="58" width="11" height="11" rx="2" fill="#161b22"/>
<rect x="142" y="72" width="11" height="11" rx="2" fill="#161b22"/>
<rect x="142" y="86" width="11" height="11" rx="2" fill="#161b22"/>
<rect x="142" y="100" width="11" height="11" rx="2" fill="#161b22"/>
<rect x="156" y="16" width="11" height="11" rx="2" fill="#a5b4fc"><title>2025-09-21: 4 sessions, 108034963 tokens</title></rect>
<rect x="156" y="30" width="11" height="11" rx="2" fill="#a5b4fc"><title>2025-09-22: 2 sessions, 84810221 tokens</title></rect>
<rect x="156" y="44" width="11" height="11" rx="2" fill="#a5b4fc"><title>2025-09-23: 3 sessions, 61079280 tokens</title></rect>
<rect x="156" y="58" width="11" height="11" rx="2" fill="#3730a3"><title>2025-09-24: 5 sessions, 8478788 tokens</title></rect>
<rect x="156" y="72" width="11" height="11" rx="2" fill="#1e1b4b"><title>2025-09-25: 5 sessions, 496451 tokens</title></rect>
<rect x="156" y="86" width="11" height="11" rx="2" fill="#161b22"/>
<rect x="156" y="100" width="11" height="11" rx="2" fill="#1e1b4b"><title>2025-09-27: 2 sessions, 64214 tokens</title></rect>
<rect x="170" y="16" width="11" height="11" rx="2" fill="#1e1b4b"><title>2025-09-28: 3 sessions, 55054 tokens</title></rect>
<rect x="170" y="30" width="11" height="11" rx="2" fill="#161b22"/>
<rect x="170" y="44" width="11" height="11" rx="2" fill="#161b22"/>
<rect x="170" y="58" width="11" height="11" rx="2" fill="#161b22"/>
<rect x="170" y="72" width="11" height="11" rx="2" fill="#161b22"/>
<rect x="170" y="86" width="11" height="11" rx="2" fill="#161b22"/>
<rect x="170" y="100" width="11" height="11" rx="2" fill="#161b22"/>
<rect x="184" y="16" width="11" height="11" rx="2" fill="#161b22"/>
<rect x="184" y="30" width="11" height="11" rx="2" fill="#161b22"/>
<rect x="184" y="44" width="11" height="11" rx="2" fill="#161b22"/>
<rect x="184" y="58" width="11" height="11" rx="2" fill="#161b22"/>
<rect x="184" y="72" width="11" height="11" rx="2" fill="#161b22"/>
<rect x="184" y="86" width="11" height="11" rx="2" fill="#161b22"/>
<rect x="184" y="100" width="11" height="11" rx="2" fill="#161b22"/>
<rect x="198" y="16" width="11" height="11" rx="2" fill="#161b22"/>
<rect x="198" y="30" width="11" height="11" rx="2" fill="#161b22"/>
<rect x="198" y="44" width="11" height="11" rx="2" fill="#161b22"/>
<rect x="198" y="58" width="11" height="11" rx="2" fill="#161b22"/>
<rect x="198" y="72" width="11" height="11" rx="2" fill="#161b22"/>
<rect x="198" y="86" width="11" height="11" rx="2" fill="#161b22"/>
<rect x="198" y="100" width="11" height="11" rx="2" fill="#161b22"/>
<rect x="212" y="16" width="11" height="11" rx="2" fill="#161b22"/>
<rect x="212" y="30" width="11" height="11" rx="2" fill="#161b22"/>
<rect x="212" y="44" width="11" height="11" rx="2" fill="#161b22"/>
<rect x="212" y="58" width="11" height="11" rx="2" fill="#161b22"/>
<rect x="212" y="72" width="11" height="11" rx="2" fill="#161b22"/>
<rect x="212" y="86" width="11" height="11" rx="2" fill="#161b22"/>
<rect x="212" y="100" width="11" height="11" rx="2" fill="#161b22"/>
<rect x="226" y="16" width="11" height="11" rx="2" fill="#161b22"/>
<rect x="226" y="30" width="11" height="11" rx="2" fill="#161b22"/>
<rect x="226" y="44" width="11" height="11" rx="2" fill="#161b22"/>
<rect x="226" y="58" width="11" height="11" rx="2" fill="#161b22"/>
<rect x="226" y="72" width="11" height="11" rx="2" fill="#161b22"/>
<rect x="226" y="86" width="11" height="11" rx="2" fill="#161b22"/>
<rect x="226" y="100" width="11" height="11" rx="2" fill="#161b22"/>
<rect x="240" y="16" width="11" height="11" rx="2" fill="#161b22"/>
<rect x="240" y="30" width="11" height="11" rx="2" fill="#161b22"/>
<rect x="240" y="44" width="11" height="11" rx="2" fill="#161b22"/>
<rect x="240" y="58" width="11" height="11" rx="2" fill="#161b22"/>
<rect x="240" y="72" width="11" height="11" rx="2" fill="#161b22"/>
<rect x="240" y="86" width="11" height="11" rx="2" fill="#161b22"/>
<rect x="240" y="100" width="11" height="11" rx="2" fill="#161b22"/>
<rect x="254" y="16" width="11" height="11" rx="2" fill="#161b22"/>
<rect x="254" y="30" width="11" height="11" rx="2" fill="#161b22"/>
<rect x="254" y="44" width="11" height="11" rx="2" fill="#161b22"/>
<rect x="254" y="58" width="11" height="11" rx="2" fill="#161b22"/>
<rect x="254" y="72" width="11" height="11" rx="2" fill="#161b22"/>
<rect x="254" y="86" width="11" height="11" rx="2" fill="#161b22"/>
<rect x="254" y="100" width="11" height="11" rx="2" fill="#161b22"/>
<rect x="268" y="16" width="11" height="11" rx="2" fill="#161b22"/>
<rect x="268" y="30" width="11" height="11" rx="2" fill="#161b22"/>
<rect x="268" y="44" width="11" height="11" rx="2" fill="#161b22"/>
<rect x="268" y="58" width="11" height="11" rx="2" fill="#161b22"/>
<rect x="268" y="72" width="11" height="11" rx="2" fill="#161b22"/>
<rect x="268" y="86" width="11" height="11" rx="2" fill="#161b22"/>
<rect x="268" y="100" width="11" height="11" rx="2" fill="#161b22"/>
<rect x="282" y="16" width="11" height="11" rx="2" fill="#161b22"/>
<rect x="282" y="30" width="11" height="11" rx="2" fill="#161b22"/>
<rect x="282" y="44" width="11" height="11" rx="2" fill="#161b22"/>
<rect x="282" y="58" width="11" height="11" rx="2" fill="#161b22"/>
<rect x="282" y="72" width="11" height="11" rx="2" fill="#161b22"/>
<rect x="282" y="86" width="11" height="11" rx="2" fill="#161b22"/>
<rect x="282" y="100" width="11" height="11" rx="2" fill="#161b22"/>
<rect x="296" y="16" width="11" height="11" rx="2" fill="#161b22"/>
<rect x="296" y="30" width="11" height="11" rx="2" fill="#161b22"/>
<rect x="296" y="44" width="11" height="11" rx="2" fill="#161b22"/>
<rect x="296" y="58" width="11" height="11" rx="2" fill="#161b22"/>
<rect x="296" y="72" width="11" height="11" rx="2" fill="#161b22"/>
<rect x="296" y="86" width="11" height="11" rx="2" fill="#161b22"/>
<rect x="296" y="100" width="11" height="11" rx="2" fill="#161b22"/>
<rect x="310" y="16" width="11" height="11" rx="2" fill="#161b22"/>
<rect x="310" y="30" width="11" height="11" rx="2" fill="#161b22"/>
<rect x="310" y="44" width="11" height="11" rx="2" fill="#161b22"/>
<rect x="310" y="58" width="11" height="11" rx="2" fill="#161b22"/>
<rect x="310" y="72" width="11" height="11" rx="2" fill="#161b22"/>
<rect x="310" y="86" width="11" height="11" rx="2" fill="#161b22"/>
<rect x="310" y="100" width="11" height="11" rx="2" fill="#161b22"/>
<rect x="324" y="16" width="11" height="11" rx="2" fill="#161b22"/>
<rect x="324" y="30" width="11" height="11" rx="2" fill="#161b22"/>
<rect x="324" y="44" width="11" height="11" rx="2" fill="#161b22"/>
<rect x="324" y="58" width="11" height="11" rx="2" fill="#161b22"/>
<rect x="324" y="72" width="11" height="11" rx="2" fill="#161b22"/>
<rect x="324" y="86" width="11" height="11" rx="2" fill="#161b22"/>
<rect x="324" y="100" width="11" height="11" rx="2" fill="#161b22"/>
<rect x="338" y="16" width="11" height="11" rx="2" fill="#161b22"/>
<rect x="338" y="30" width="11" height="11" rx="2" fill="#161b22"/>
<rect x="338" y="44" width="11" height="11" rx="2" fill="#161b22"/>
<rect x="338" y="58" width="11" height="11" rx="2" fill="#161b22"/>
<rect x="338" y="72" width="11" height="11" rx="2" fill="#161b22"/>
<rect x="338" y="86" width="11" height="11" rx="2" fill="#161b22"/>
<rect x="338" y="100" width="11" height="11" rx="2" fill="#161b22"/>
<rect x="352" y="16" width="11" height="11" rx="2" fill="#161b22"/>
<rect x="352" y="30" width="11" height="11" rx="2" fill="#161b22"/>
<rect x="352" y="44" width="11" height="11" rx="2" fill="#161b22"/>
<rect x="352" y="58" width="11" height="11" rx="2" fill="#161b22"/>
<rect x="352" y="72" width="11" height="11" rx="2" fill="#161b22"/>
<rect x="352" y="86" width="11" height="11" rx="2" fill="#161b22"/>
<rect x="352" y="100" width="11" height="11" rx="2" fill="#161b22"/>
<rect x="366" y="16" width="11" height="11" rx="2" fill="#161b22"/>
<rect x="366" y="30" width="11" height="11" rx="2" fill="#161b22"/>
<rect x="366" y="44" width="11" height="11" rx="2" fill="#161b22"/>
<rect x="366" y="58" width="11" height="11" rx="2" fill="#161b22"/>
<rect x="366" y="72" width="11" height="11" rx="2" fill="#161b22"/>
<rect x="366" y="86" width="11" height="11" rx="2" fill="#161b22"/>
<rect x="366" y="100" width="11" height="11" rx="2" fill="#161b22"/>
<rect x="380" y="16" width="11" height="11" rx="2" fill="#161b22"/>
<rect x="380" y="30" width="11" height="11" rx="2" fill="#161b22"/>
<rect x="380" y="44" width="11" height="11" rx="2" fill="#161b22"/>
<rect x="380" y="58" width="11" height="11" rx="2" fill="#161b22"/>
<rect x="380" y="72" width="11" height="11" rx="2" fill="#161b22"/>
<rect x="380" y="86" width="11" height="11" rx="2" fill="#161b22"/>
<rect x="380" y="100" width="11" height="11" rx="2" fill="#161b22"/>
<rect x="394" y="16" width="11" height="11" rx="2" fill="#161b22"/>
<rect x="394" y="30" width="11" height="11" rx="2" fill="#161b22"/>
<rect x="394" y="44" width="11" height="11" rx="2" fill="#161b22"/>
<rect x="394" y="58" width="11" height="11" rx="2" fill="#161b22"/>
<rect x="394" y="72" width="11" height="11" rx="2" fill="#161b22"/>
<rect x="394" y="86" width="11" height="11" rx="2" fill="#161b22"/>
<rect x="394" y="100" width="11" height="11" rx="2" fill="#161b22"/>
<rect x="408" y="16" width="11" height="11" rx="2" fill="#161b22"/>
<rect x="408" y="30" width="11" height="11" rx="2" fill="#161b22"/>
<rect x="408" y="44" width="11" height="11" rx="2" fill="#161b22"/>
<rect x="408" y="58" width="11" height="11" rx="2" fill="#161b22"/>
<rect x="408" y="72" width="11" height="11" rx="2" fill="#161b22"/>
<rect x="408" y="86" width="11" height="11" rx="2" fill="#161b22"/>
<rect x="408" y="100" width="11" height="11" rx="2" fill="#161b22"/>
<rect x="422" y="16" width="11" height="11" rx="2" fill="#161b22"/>
<rect x="422" y="30" width="11" height="11" rx="2" fill="#161b22"/>
<rect x="422" y="44" width="11" height="11" rx="2" fill="#161b22"/>
<rect x="422" y="58" width="11" height="11" rx="2" fill="#161b22"/>
<rect x="422" y="72" width="11" height="11" rx="2" fill="#161b22"/>
<rect x="422" y="86" width="11" height="11" rx="2" fill="#161b22"/>
<rect x="422" y="100" width="11" height="11" rx="2" fill="#161b22"/>
<rect x="436" y="16" width="11" height="11" rx="2" fill="#161b22"/>
<rect x="436" y="30" width="11" height="11" rx="2" fill="#161b22"/>
<rect x="436" y="44" width="11" height="11" rx="2" fill="#161b22"/>
<rect x="436" y="58" width="11" height="11" rx="2" fill="#161b22"/>
<rect x="436" y="72" width="11" height="11" rx="2" fill="#1e1b4b"><title>2026-02-12: 2 sessions, 4077 tokens</title></rect>
<rect x="436" y="86" width="11" height="11" rx="2" fill="#1e1b4b"><title>2026-02-13: 5 sessions, 1960762 tokens</title></rect>
<rect x="436" y="100" width="11" height="11" rx="2" fill="#1e1b4b"><title>2026-02-14: 2 sessions, 6039006 tokens</title></rect>
<rect x="450" y="16" width="11" height="11" rx="2" fill="#3730a3"><title>2026-02-15: 8 sessions, 14960470 tokens</title></rect>
<rect x="450" y="30" width="11" height="11" rx="2" fill="#161b22"/>
<rect x="450" y="44" width="11" height="11" rx="2" fill="#161b22"/>
<rect x="450" y="58" width="11" height="11" rx="2" fill="#3730a3"><title>2026-02-18: 8 sessions, 14791420 tokens</title></rect>
<rect x="450" y="72" width="11" height="11" rx="2" fill="#161b22"/>
<rect x="450" y="86" width="11" height="11" rx="2" fill="#3730a3"><title>2026-02-20: 4 sessions, 10034510 tokens</title></rect>
<rect x="450" y="100" width="11" height="11" rx="2" fill="#161b22"/>
<rect x="464" y="16" width="11" height="11" rx="2" fill="#1e1b4b"><title>2026-02-22: 3 sessions, 3998118 tokens</title></rect>
<rect x="464" y="30" width="11" height="11" rx="2" fill="#161b22"/>
<rect x="464" y="44" width="11" height="11" rx="2" fill="#a5b4fc"><title>2026-02-24: 6 sessions, 52635057 tokens</title></rect>
<rect x="464" y="58" width="11" height="11" rx="2" fill="#a5b4fc"><title>2026-02-25: 7 sessions, 56163736 tokens</title></rect>
<rect x="464" y="72" width="11" height="11" rx="2" fill="#6366f1"><title>2026-02-26: 2 sessions, 33606079 tokens</title></rect>
<rect x="464" y="86" width="11" height="11" rx="2" fill="#6366f1"><title>2026-02-27: 4 sessions, 32920269 tokens</title></rect>
<rect x="464" y="100" width="11" height="11" rx="2" fill="#3730a3"><title>2026-02-28: 1 session, 12305464 tokens</title></rect>
<rect x="478" y="16" width="11" height="11" rx="2" fill="#a5b4fc"><title>2026-03-01: 5 sessions, 85052931 tokens</title></rect>
<rect x="478" y="30" width="11" height="11" rx="2" fill="#3730a3"><title>2026-03-02: 2 sessions, 16273187 tokens</title></rect>
<rect x="478" y="44" width="11" height="11" rx="2" fill="#a5b4fc"><title>2026-03-03: 13 sessions, 42951357 tokens</title></rect>
<rect x="478" y="58" width="11" height="11" rx="2" fill="#a5b4fc"><title>2026-03-04: 6 sessions, 249882119 tokens</title></rect>
<rect x="478" y="72" width="11" height="11" rx="2" fill="#161b22"/>
<rect x="478" y="86" width="11" height="11" rx="2" fill="#161b22"/>
<rect x="478" y="100" width="11" height="11" rx="2" fill="#161b22"/>
<rect x="492" y="16" width="11" height="11" rx="2" fill="#161b22"/>
<rect x="492" y="30" width="11" height="11" rx="2" fill="#161b22"/>
<rect x="492" y="44" width="11" height="11" rx="2" fill="#161b22"/>
<rect x="492" y="58" width="11" height="11" rx="2" fill="#3730a3"><title>2026-03-11: 2 sessions, 13646260 tokens</title></rect>
<rect x="492" y="72" width="11" height="11" rx="2" fill="#1e1b4b"><title>2026-03-12: 6 sessions, 3286625 tokens</title></rect>
<rect x="492" y="86" width="11" height="11" rx="2" fill="#161b22"/>
<rect x="492" y="100" width="11" height="11" rx="2" fill="#161b22"/>
<rect x="506" y="16" width="11" height="11" rx="2" fill="#161b22"/>
<rect x="506" y="30" width="11" height="11" rx="2" fill="#161b22"/>
<rect x="506" y="44" width="11" height="11" rx="2" fill="#161b22"/>
<rect x="506" y="58" width="11" height="11" rx="2" fill="#3730a3"><title>2026-03-18: 3 sessions, 16137083 tokens</title></rect>
<rect x="506" y="72" width="11" height="11" rx="2" fill="#a5b4fc"><title>2026-03-19: 2 sessions, 73820223 tokens</title></rect>
<rect x="506" y="86" width="11" height="11" rx="2" fill="#161b22"/>
<rect x="506" y="100" width="11" height="11" rx="2" fill="#161b22"/>
<rect x="520" y="16" width="11" height="11" rx="2" fill="#161b22"/>
<rect x="520" y="30" width="11" height="11" rx="2" fill="#3730a3"><title>2026-03-23: 3 sessions, 10102475 tokens</title></rect>
<rect x="520" y="44" width="11" height="11" rx="2" fill="#6366f1"><title>2026-03-24: 4 sessions, 24044910 tokens</title></rect>
<rect x="520" y="58" width="11" height="11" rx="2" fill="#a5b4fc"><title>2026-03-25: 12 sessions, 122514962 tokens</title></rect>
<rect x="520" y="72" width="11" height="11" rx="2" fill="#a5b4fc"><title>2026-03-26: 6 sessions, 66468018 tokens</title></rect>
<rect x="520" y="86" width="11" height="11" rx="2" fill="#161b22"/>
<rect x="520" y="100" width="11" height="11" rx="2" fill="#161b22"/>
<rect x="534" y="16" width="11" height="11" rx="2" fill="#161b22"/>
<rect x="534" y="30" width="11" height="11" rx="2" fill="#161b22"/>
<rect x="534" y="44" width="11" height="11" rx="2" fill="#161b22"/>
<rect x="534" y="58" width="11" height="11" rx="2" fill="#161b22"/>
<rect x="534" y="72" width="11" height="11" rx="2" fill="#161b22"/>
<rect x="534" y="86" width="11" height="11" rx="2" fill="#161b22"/>
<rect x="534" y="100" width="11" height="11" rx="2" fill="#161b22"/>
<rect x="548" y="16" width="11" height="11" rx="2" fill="#161b22"/>
<rect x="548" y="30" width="11" height="11" rx="2" fill="#3730a3"><title>2026-04-06: 2 sessions, 7191737 tokens</title></rect>
<rect x="548" y="44" width="11" height="11" rx="2" fill="#161b22"/>
<rect x="548" y="58" width="11" height="11" rx="2" fill="#161b22"/>
<rect x="548" y="72" width="11" height="11" rx="2" fill="#161b22"/>
<rect x="548" y="86" width="11" height="11" rx="2" fill="#161b22"/>
<rect x="548" y="100" width="11" height="11" rx="2" fill="#161b22"/>
<rect x="562" y="16" width="11" height="11" rx="2" fill="#161b22"/>
<rect x="562" y="30" width="11" height="11" rx="2" fill="#1e1b4b"><title>2026-04-13: 2 sessions, 6693277 tokens</title></rect>
<rect x="562" y="44" width="11" height="11" rx="2" fill="#1e1b4b"><title>2026-04-14: 3 sessions, 5375004 tokens</title></rect>
<rect x="562" y="58" width="11" height="11" rx="2" fill="#3730a3"><title>2026-04-15: 4 sessions, 12217422 tokens</title></rect>
<rect x="562" y="72" width="11" height="11" rx="2" fill="#161b22"/>
<rect x="562" y="86" width="11" height="11" rx="2" fill="#1e1b4b"><title>2026-04-17: 13 sessions, 6314796 tokens</title></rect>
<rect x="562" y="100" width="11" height="11" rx="2" fill="#161b22"/>
<rect x="576" y="16" width="11" height="11" rx="2" fill="#161b22"/>
<rect x="576" y="30" width="11" height="11" rx="2" fill="#161b22"/>
<rect x="576" y="44" width="11" height="11" rx="2" fill="#161b22"/>
<rect x="576" y="58" width="11" height="11" rx="2" fill="#6366f1"><title>2026-04-22: 11 sessions, 17301375 tokens</title></rect>
<rect x="576" y="72" width="11" height="11" rx="2" fill="#3730a3"><title>2026-04-23: 14 sessions, 11906214 tokens</title></rect>
<rect x="576" y="86" width="11" height="11" rx="2" fill="#161b22"/>
<rect x="576" y="100" width="11" height="11" rx="2" fill="#1e1b4b"><title>2026-04-25: 2 sessions, 995818 tokens</title></rect>
<rect x="590" y="16" width="11" height="11" rx="2" fill="#1e1b4b"><title>2026-04-26: 4 sessions, 1032964 tokens</title></rect>
<rect x="590" y="30" width="11" height="11" rx="2" fill="#3730a3"><title>2026-04-27: 6 sessions, 16151386 tokens</title></rect>
<rect x="590" y="44" width="11" height="11" rx="2" fill="#1e1b4b"><title>2026-04-28: 2 sessions, 2260432 tokens</title></rect>
<rect x="590" y="58" width="11" height="11" rx="2" fill="#a5b4fc"><title>2026-04-29: 6 sessions, 40576315 tokens</title></rect>
<rect x="590" y="72" width="11" height="11" rx="2" fill="#a5b4fc"><title>2026-04-30: 10 sessions, 87408134 tokens</title></rect>
<rect x="590" y="86" width="11" height="11" rx="2" fill="#3730a3"><title>2026-05-01: 4 sessions, 14425518 tokens</title></rect>
<rect x="590" y="100" width="11" height="11" rx="2" fill="#161b22"/>
<rect x="604" y="16" width="11" height="11" rx="2" fill="#6366f1"><title>2026-05-03: 4 sessions, 18451243 tokens</title></rect>
<rect x="604" y="30" width="11" height="11" rx="2" fill="#3730a3"><title>2026-05-04: 4 sessions, 9816812 tokens</title></rect>
<rect x="604" y="44" width="11" height="11" rx="2" fill="#6366f1"><title>2026-05-05: 6 sessions, 33432037 tokens</title></rect>
<rect x="604" y="58" width="11" height="11" rx="2" fill="#6366f1"><title>2026-05-06: 1 session, 21460658 tokens</title></rect>
<rect x="604" y="72" width="11" height="11" rx="2" fill="#6366f1"><title>2026-05-07: 11 sessions, 26202465 tokens</title></rect>
<rect x="604" y="86" width="11" height="11" rx="2" fill="#161b22"/>
<rect x="604" y="100" width="11" height="11" rx="2" fill="#1e1b4b"><title>2026-05-09: 7 sessions, 3275073 tokens</title></rect>
<rect x="618" y="16" width="11" height="11" rx="2" fill="#161b22"/>
<rect x="618" y="30" width="11" height="11" rx="2" fill="#6366f1"><title>2026-05-11: 6 sessions, 26033707 tokens</title></rect>
<rect x="618" y="44" width="11" height="11" rx="2" fill="#3730a3"><title>2026-05-12: 9 sessions, 13365531 tokens</title></rect>
<rect x="618" y="58" width="11" height="11" rx="2" fill="#6366f1"><title>2026-05-13: 9 sessions, 21209352 tokens</title></rect>
<rect x="618" y="72" width="11" height="11" rx="2" fill="#3730a3"><title>2026-05-14: 4 sessions, 9521023 tokens</title></rect>
<rect x="618" y="86" width="11" height="11" rx="2" fill="#6366f1"><title>2026-05-15: 8 sessions, 21747529 tokens</title></rect>
<rect x="618" y="100" width="11" height="11" rx="2" fill="#1e1b4b"><title>2026-05-16: 2 sessions, 263519 tokens</title></rect>
<rect x="632" y="16" width="11" height="11" rx="2" fill="#161b22"/>
<rect x="632" y="30" width="11" height="11" rx="2" fill="#161b22"/>
<rect x="632" y="44" width="11" height="11" rx="2" fill="#1e1b4b"><title>2026-05-19: 6 sessions, 6721491 tokens</title></rect>
<rect x="632" y="58" width="11" height="11" rx="2" fill="#a5b4fc"><title>2026-05-20: 3 sessions, 39887289 tokens</title></rect>
<rect x="632" y="72" width="11" height="11" rx="2" fill="#a5b4fc"><title>2026-05-21: 2 sessions, 132808707 tokens</title></rect>
<rect x="632" y="86" width="11" height="11" rx="2" fill="#161b22"/>
<rect x="632" y="100" width="11" height="11" rx="2" fill="#161b22"/>
<rect x="646" y="16" width="11" height="11" rx="2" fill="#3730a3"><title>2026-05-24: 2 sessions, 14564709 tokens</title></rect>
<rect x="646" y="30" width="11" height="11" rx="2" fill="#161b22"/>
<rect x="646" y="44" width="11" height="11" rx="2" fill="#1e1b4b"><title>2026-05-26: 5 sessions, 4896184 tokens</title></rect>
<rect x="646" y="58" width="11" height="11" rx="2" fill="#3730a3"><title>2026-05-27: 3 sessions, 14757374 tokens</title></rect>
<rect x="646" y="72" width="11" height="11" rx="2" fill="#a5b4fc"><title>2026-05-28: 21 sessions, 41244259 tokens</title></rect>
<rect x="646" y="86" width="11" height="11" rx="2" fill="#3730a3"><title>2026-05-29: 12 sessions, 10036643 tokens</title></rect>
<rect x="646" y="100" width="11" height="11" rx="2" fill="#a5b4fc"><title>2026-05-30: 8 sessions, 56381612 tokens</title></rect>
<rect x="660" y="16" width="11" height="11" rx="2" fill="#6366f1"><title>2026-05-31: 11 sessions, 22713202 tokens</title></rect>
<rect x="660" y="30" width="11" height="11" rx="2" fill="#6366f1"><title>2026-06-01: 10 sessions, 23066377 tokens</title></rect>
<rect x="660" y="44" width="11" height="11" rx="2" fill="#6366f1"><title>2026-06-02: 9 sessions, 17183353 tokens</title></rect>
<rect x="660" y="58" width="11" height="11" rx="2" fill="#161b22"/>
<rect x="660" y="72" width="11" height="11" rx="2" fill="#161b22"/>
<rect x="660" y="86" width="11" height="11" rx="2" fill="#6366f1"><title>2026-06-05: 3 sessions, 16874188 tokens</title></rect>
<rect x="660" y="100" width="11" height="11" rx="2" fill="#161b22"/>
<rect x="674" y="16" width="11" height="11" rx="2" fill="#161b22"/>
<rect x="674" y="30" width="11" height="11" rx="2" fill="#1e1b4b"><title>2026-06-08: 2 sessions, 491232 tokens</title></rect>
<rect x="674" y="44" width="11" height="11" rx="2" fill="#161b22"/>
<rect x="674" y="58" width="11" height="11" rx="2" fill="#161b22"/>
<rect x="674" y="72" width="11" height="11" rx="2" fill="#a5b4fc"><title>2026-06-11: 3 sessions, 129429751 tokens</title></rect>
<rect x="674" y="86" width="11" height="11" rx="2" fill="#1e1b4b"><title>2026-06-12: 2 sessions, 509370 tokens</title></rect>
<rect x="674" y="100" width="11" height="11" rx="2" fill="#161b22"/>
<rect x="688" y="16" width="11" height="11" rx="2" fill="#161b22"/>
<rect x="688" y="30" width="11" height="11" rx="2" fill="#161b22"/>
<rect x="688" y="44" width="11" height="11" rx="2" fill="#a5b4fc"><title>2026-06-16: 30 sessions, 138377648 tokens</title></rect>
<rect x="688" y="58" width="11" height="11" rx="2" fill="#1e1b4b"><title>2026-06-17: 3 sessions, 4319706 tokens</title></rect>
<rect x="688" y="72" width="11" height="11" rx="2" fill="#a5b4fc"><title>2026-06-18: 11 sessions, 222230841 tokens</title></rect>
<rect x="688" y="86" width="11" height="11" rx="2" fill="#161b22"/>
<rect x="688" y="100" width="11" height="11" rx="2" fill="#6366f1"><title>2026-06-20: 6 sessions, 21938649 tokens</title></rect>
<rect x="702" y="16" width="11" height="11" rx="2" fill="#161b22"/>
<rect x="702" y="30" width="11" height="11" rx="2" fill="#3730a3"><title>2026-06-22: 2 sessions, 10310191 tokens</title></rect>
<rect x="702" y="44" width="11" height="11" rx="2" fill="#6366f1"><title>2026-06-23: 4 sessions, 29929630 tokens</title></rect>
<rect x="702" y="58" width="11" height="11" rx="2" fill="#6366f1"><title>2026-06-24: 4 sessions, 21810189 tokens</title></rect>
<rect x="702" y="72" width="11" height="11" rx="2" fill="#161b22"/>
<rect x="702" y="86" width="11" height="11" rx="2" fill="#161b22"/>
<rect x="702" y="100" width="11" height="11" rx="2" fill="#161b22"/>
<rect x="716" y="16" width="11" height="11" rx="2" fill="#161b22"/>
<rect x="716" y="30" width="11" height="11" rx="2" fill="#161b22"/>
<rect x="716" y="44" width="11" height="11" rx="2" fill="#6366f1"><title>2026-06-30: 5 sessions, 17385816 tokens</title></rect>
<rect x="716" y="58" width="11" height="11" rx="2" fill="#a5b4fc"><title>2026-07-01: 8 sessions, 37922126 tokens</title></rect>
<rect x="716" y="72" width="11" height="11" rx="2" fill="#161b22"/>
<rect x="716" y="86" width="11" height="11" rx="2" fill="#161b22"/>
<rect x="716" y="100" width="11" height="11" rx="2" fill="#161b22"/>
<rect x="730" y="16" width="11" height="11" rx="2" fill="#161b22"/>
<rect x="730" y="30" width="11" height="11" rx="2" fill="#161b22"/>
<rect x="730" y="44" width="11" height="11" rx="2" fill="#6366f1"><title>2026-07-07: 5 sessions, 17034041 tokens</title></rect>
<rect x="730" y="58" width="11" height="11" rx="2" fill="#161b22"/>
<rect x="730" y="72" width="11" height="11" rx="2" fill="#161b22"/>
<rect x="730" y="86" width="11" height="11" rx="2" fill="#1e1b4b"><title>2026-07-10: 5 sessions, 2383029 tokens</title></rect>
<rect x="730" y="100" width="11" height="11" rx="2" fill="#161b22"/>
<rect x="744" y="16" width="11" height="11" rx="2" fill="#a5b4fc"><title>2026-07-12: 1 session, 103270135 tokens</title></rect>
<rect x="744" y="30" width="11" height="11" rx="2" fill="#161b22"/>
<rect x="744" y="44" width="11" height="11" rx="2" fill="#3730a3"><title>2026-07-14: 2 sessions, 15782379 tokens</title></rect>
<rect x="744" y="58" width="11" height="11" rx="2" fill="#161b22"/>
<rect x="744" y="72" width="11" height="11" rx="2" fill="#6366f1"><title>2026-07-16: 3 sessions, 32357070 tokens</title></rect>
<rect x="744" y="86" width="11" height="11" rx="2" fill="#6366f1"><title>2026-07-17: 9 sessions, 33263309 tokens</title></rect>
<rect x="744" y="100" width="11" height="11" rx="2" fill="#161b22"/>
<rect x="758" y="16" width="11" height="11" rx="2" fill="#1e1b4b"><title>2026-07-19: 1 session, 3371374 tokens</title></rect>
<rect x="758" y="30" width="11" height="11" rx="2" fill="#161b22"/>
<rect x="758" y="44" width="11" height="11" rx="2" fill="#161b22"/>
<rect x="758" y="58" width="11" height="11" rx="2" fill="#3730a3"><title>2026-07-22: 4 sessions, 8975261 tokens</title></rect>
<rect x="758" y="72" width="11" height="11" rx="2" fill="#a5b4fc"><title>2026-07-23: 4 sessions, 109682000 tokens</title></rect>
<rect x="758" y="86" width="11" height="11" rx="2" fill="#161b22"/>
<g font-family="-apple-system,BlinkMacSystemFont,'Segoe UI',Helvetica,Arial,sans-serif" font-size="10" fill="#8b949e">
<text x="30" y="127">574 sessions · 3.0B tokens · 136 active days · 31d streak · 2025-07-20 – 2026-07-24</text>
<text x="769" y="127" text-anchor="end">updated 2026-07-24</text>
</g>
</svg>